# xmcd
#
# Track frame offsets: 
#        150
#        20186
#        36992
#        51099
#        59907
#        77586
#        93944
#        112485
#        130608
#        146540
#        163474
#        179805
#        192901
#        205522
#        221671
#        235118
#        250011
#        270827
#        296747
#        312513
#
# Disc length: 4410 seconds
#
# Revision: 1
# Processed by: cddbd v1.5.2PL0 Copyright (c) Steve Scherf et al.
# Submitted via: ExactAudioCopy v0.95b3
#
DISCID=37113814
DTITLE=Various Artist - HP200805
DYEAR=2008
DGENRE=Pop
TTITLE0=Steven Curtis Chapman - Cinderella
TTITLE1=Marie Digby - Say It Again [Album Version]
TTITLE2=Natasha Bedingfield - Pocketful Of Sunshine
TTITLE3=Michael Cera and Ellen Page - Anyone Else But You
TTITLE4=Ashanti - The Way That I Love You
TTITLE5=Danity Kane - Damaged [Radio Edit]
TTITLE6=Raheem DeVaughn - Customer [Album Version]
TTITLE7=Keith Sweat f Paisley Bettis - Suga Suga Suga
TTITLE8=Sunny Valentine f Lil' Will - Shine On 'Em [Clean]
TTITLE9=Mica Roberts f Toby Keith - Things A Mama Don't Know
TTITLE10=LeAnn Rimes - Good Friend And A Glass Of Wine
TTITLE11=Taylor Swift - Picture To Burn [Radio Edit]
TTITLE12=Foxboro Hot Tubs - Mother Mary
TTITLE13=B-52's - Funplex [Radio Edit]
TTITLE14=Switches - Drama Queen
TTITLE15=10 Years - Beautiful
TTITLE16=Groove Armada - Love Sweet Sound [Album Version]
TTITLE17=Idina Menzel - Gorgeous [Redtop In The Remix]
TTITLE18=Needtobreathe - Washed By The Water [Album Version]
TTITLE19=Fee - All Because Of Jesus
EXTD=
EXTT0=
EXTT1=
EXTT2=
EXTT3=
EXTT4=
EXTT5=
EXTT6=
EXTT7=
EXTT8=
EXTT9=
EXTT10=
EXTT11=
EXTT12=
EXTT13=
EXTT14=
EXTT15=
EXTT16=
EXTT17=
EXTT18=
EXTT19=
PLAYORDER=
